<?xml version="1.0" encoding="UTF-8" standalone="no"?>
<!DOCTYPE svg PUBLIC "-//W3C//DTD SVG 1.1//EN" "http://www.w3.org/Graphics/SVG/1.1/DTD/svg11.dtd">
<svg xmlns="http://www.w3.org/2000/svg" version="1.1" viewBox="0.00 0.00 1024.00 1024.00">
<path fill="#f0af34" d="
  M 420.98 166.68
  A 0.63 0.63 0.0 0 1 421.61 166.05
  L 481.24 166.05
  A 1.21 1.21 0.0 0 1 482.45 167.26
  Q 482.51 299.60 482.47 353.50
  C 482.47 358.35 482.12 362.69 482.07 367.28
  Q 481.98 373.63 479.84 379.59
  Q 477.42 386.32 471.06 388.95
  A 1.95 1.95 0.0 0 1 470.31 389.10
  L 422.99 389.58
  A 1.96 1.96 0.0 0 1 421.01 387.62
  Q 421.00 385.39 420.97 310.24
  C 420.97 305.55 418.42 306.08 414.45 306.08
  Q 376.79 306.11 339.57 306.08
  C 337.77 306.07 335.99 305.73 334.65 307.11
  A 1.70 1.69 -23.5 0 0 334.19 308.27
  L 334.19 387.72
  A 1.68 1.67 -0.0 0 1 332.51 389.39
  L 273.35 389.39
  A 0.95 0.95 0.0 0 1 272.40 388.44
  L 272.40 167.52
  A 1.46 1.46 0.0 0 1 273.86 166.06
  L 332.52 166.06
  A 1.66 1.66 0.0 0 1 334.18 167.72
  L 334.18 248.86
  A 2.16 2.16 0.0 0 0 336.34 251.02
  L 418.68 251.02
  A 2.31 2.31 0.0 0 0 420.99 248.71
  L 420.98 166.68
  Z"
/>
<path fill="#f0af34" d="
  M 689.83 389.40
  A 0.81 0.81 0.0 0 1 689.02 388.59
  Q 688.95 354.21 688.98 309.50
  Q 688.98 307.51 687.63 306.37
  A 1.38 1.38 0.0 0 0 686.76 306.06
  L 605.23 306.06
  A 2.33 2.32 -0.1 0 0 602.90 308.39
  Q 603.01 358.78 602.85 386.45
  Q 602.83 389.31 599.76 389.32
  Q 588.38 389.38 557.35 389.41
  Q 551.97 389.41 549.79 388.45
  C 545.45 386.52 543.62 383.21 541.95 378.57
  C 540.79 375.33 540.89 372.19 540.35 368.46
  Q 540.06 366.48 540.06 363.52
  Q 540.04 319.47 540.05 167.26
  A 1.21 1.20 -0.0 0 1 541.26 166.06
  L 601.18 166.06
  A 1.75 1.75 0.0 0 1 602.93 167.81
  L 602.93 248.98
  A 2.04 2.04 0.0 0 0 604.97 251.02
  L 686.60 251.02
  A 2.41 2.40 -0.0 0 0 689.01 248.62
  L 689.01 167.71
  A 1.65 1.65 0.0 0 1 690.66 166.06
  L 749.27 166.06
  A 1.63 1.63 0.0 0 1 750.90 167.69
  L 750.90 387.60
  A 1.80 1.80 0.0 0 1 749.10 389.40
  L 689.83 389.40
  Z"
/>
<path fill="#f0af34" d="
  M 511.97 363.98
  L 512.05 365.23
  A 3.58 3.25 36.6 0 0 512.21 366.04
  Q 519.31 386.48 531.69 407.30
  C 547.28 433.52 564.75 456.38 582.94 480.31
  Q 586.17 484.56 594.12 496.90
  Q 600.35 506.57 605.06 517.46
  Q 613.48 536.92 613.49 559.26
  Q 613.50 580.47 604.19 599.52
  C 588.73 631.14 558.92 653.25 523.64 657.52
  C 516.78 658.35 509.90 658.07 503.01 657.87
  Q 499.68 657.77 488.49 655.42
  Q 465.89 650.66 446.92 635.82
  Q 420.49 615.14 411.55 582.47
  Q 407.69 568.38 408.10 554.10
  Q 408.19 550.97 408.59 548.95
  C 409.04 546.71 408.95 544.53 409.39 542.06
  Q 413.47 518.72 426.92 497.64
  Q 435.78 483.76 442.26 475.25
  Q 464.68 445.80 464.94 445.46
  Q 486.27 417.24 498.29 393.82
  Q 505.65 379.50 510.56 364.34
  A 0.87 0.86 30.4 0 1 511.97 363.98
  Z
  M 508.66 619.36
  Q 507.33 617.96 506.36 615.62
  Q 503.47 608.66 502.54 605.24
  Q 498.31 589.71 505.28 575.71
  Q 509.52 567.20 519.47 552.28
  Q 524.97 544.04 529.42 531.97
  Q 533.65 520.54 533.95 509.94
  Q 534.51 490.19 523.32 473.11
  Q 516.74 463.07 510.80 455.59
  A 0.24 0.24 0.0 0 0 510.37 455.72
  C 509.92 462.70 509.19 470.25 507.36 476.81
  Q 503.21 491.66 495.83 503.34
  Q 489.21 513.83 485.38 518.38
  Q 474.40 531.42 466.62 545.59
  Q 460.90 556.02 459.37 567.84
  C 455.84 595.07 475.03 623.58 502.32 629.00
  C 513.69 631.26 527.15 628.86 536.86 622.89
  C 557.71 610.08 569.71 588.96 568.97 564.63
  Q 568.50 549.08 561.58 534.38
  Q 557.90 526.58 553.05 518.80
  A 0.44 0.44 0.0 0 0 552.24 519.02
  Q 551.42 538.27 539.65 554.68
  Q 537.01 558.35 526.50 570.25
  Q 522.32 574.99 517.30 582.86
  C 510.58 593.41 506.37 606.86 509.04 619.16
  A 0.22 0.22 0.0 0 1 508.66 619.36
  Z"
/>
<path fill="#f0af34" d="
  M 783.44 744.99
  A 0.59 0.59 0.0 0 1 782.85 744.40
  L 782.85 731.31
  A 0.97 0.97 0.0 0 1 783.82 730.34
  L 816.65 730.34
  A 0.65 0.65 0.0 0 1 817.30 730.99
  L 817.30 758.64
  A 2.92 2.91 63.6 0 1 816.71 760.40
  C 809.67 769.77 799.42 776.00 787.52 776.92
  Q 778.49 777.61 771.28 775.89
  Q 762.45 773.79 754.97 767.57
  Q 744.27 758.67 742.07 742.75
  Q 741.73 740.29 741.92 732.99
  Q 742.07 727.14 743.12 723.33
  C 747.77 706.51 761.21 695.26 778.47 694.16
  C 794.58 693.13 808.95 698.53 815.98 713.74
  A 1.02 1.01 -26.1 0 1 815.51 715.08
  L 803.60 721.04
  A 2.31 2.30 -27.5 0 1 800.54 720.08
  Q 796.77 713.08 790.62 710.68
  C 782.56 707.55 773.66 708.89 767.30 714.97
  C 758.75 723.14 757.66 734.60 760.88 745.72
  C 764.34 757.70 777.11 764.17 788.95 761.28
  Q 795.48 759.69 800.46 755.14
  A 2.96 2.96 0.0 0 0 801.43 752.95
  L 801.43 745.36
  A 0.38 0.37 0.0 0 0 801.05 744.99
  L 783.44 744.99
  Z"
/>
<path fill="#f0af34" d="
  M 495.02 722.77
  A 0.28 0.28 0.0 0 0 494.50 722.62
  L 470.93 760.09
  A 0.90 0.90 0.0 0 1 469.40 760.09
  L 446.66 723.36
  A 0.38 0.38 0.0 0 0 445.95 723.56
  L 445.95 775.12
  A 0.75 0.74 90.0 0 1 445.21 775.87
  L 430.47 775.87
  A 0.96 0.96 0.0 0 1 429.51 774.91
  L 429.51 696.81
  A 1.45 1.45 0.0 0 1 430.96 695.36
  L 446.37 695.36
  A 2.15 2.14 74.0 0 1 448.19 696.37
  L 470.20 731.94
  A 0.30 0.30 0.0 0 0 470.71 731.94
  L 493.45 695.81
  A 0.99 0.99 0.0 0 1 494.30 695.33
  L 510.64 695.33
  A 1.34 1.33 -90.0 0 1 511.97 696.67
  L 511.97 775.13
  A 0.76 0.76 0.0 0 1 511.21 775.89
  L 495.67 775.89
  A 0.65 0.65 0.0 0 1 495.02 775.24
  L 495.02 722.77
  Z"
/>
<path fill="#f0af34" d="
  M 216.51 749.92
  A 0.47 0.47 0.0 0 0 216.02 750.39
  L 216.02 775.47
  A 0.46 0.46 0.0 0 1 215.56 775.93
  L 199.75 775.93
  A 0.75 0.75 0.0 0 1 199.00 775.18
  L 199.00 696.54
  A 1.15 1.15 0.0 0 1 200.16 695.39
  Q 205.23 695.42 226.09 695.30
  Q 235.66 695.25 239.30 696.23
  C 249.25 698.93 256.75 705.21 258.88 715.51
  C 261.98 730.46 255.06 744.59 240.03 748.79
  C 233.10 750.72 224.48 750.19 216.51 749.92
  Z
  M 215.91 710.39
  L 216.07 734.61
  A 0.30 0.30 0.0 0 0 216.38 734.91
  L 229.41 734.82
  A 12.79 11.70 -0.4 0 0 242.11 723.03
  L 242.10 721.61
  A 12.79 11.70 -0.4 0 0 229.23 710.00
  L 216.20 710.09
  A 0.30 0.30 0.0 0 0 215.91 710.39
  Z"
/>
<path fill="#f0af34" d="
  M 274.57 775.10
  L 274.57 696.13
  A 0.78 0.78 0.0 0 1 275.35 695.35
  L 291.18 695.35
  A 0.78 0.78 0.0 0 1 291.96 696.13
  L 291.96 758.64
  A 0.78 0.78 0.0 0 0 292.74 759.42
  L 325.36 759.42
  A 0.78 0.78 0.0 0 1 326.14 760.20
  L 326.14 775.10
  A 0.78 0.78 0.0 0 1 325.36 775.88
  L 275.35 775.88
  A 0.78 0.78 0.0 0 1 274.57 775.10
  Z"
/>
<path fill="#f0af34" d="
  M 341.09 695.94
  A 0.76 0.75 -84.4 0 1 341.83 695.33
  L 356.58 695.33
  A 1.33 1.33 0.0 0 1 357.91 696.65
  Q 357.96 700.31 358.08 740.86
  C 358.09 746.67 358.89 754.79 364.11 758.47
  C 374.08 765.51 387.67 762.28 391.23 749.98
  Q 392.09 747.01 392.08 741.92
  Q 392.05 717.33 392.10 696.36
  A 0.98 0.97 0.0 0 1 393.08 695.39
  L 408.65 695.39
  A 1.19 1.18 -0.0 0 1 409.84 696.57
  Q 409.79 710.21 409.81 743.50
  Q 409.81 745.16 408.94 752.00
  Q 408.43 756.02 405.58 761.23
  C 400.62 770.29 390.27 775.92 380.26 776.88
  Q 374.07 777.47 367.98 776.74
  C 355.84 775.29 346.17 767.90 342.48 756.02
  Q 340.86 750.81 340.92 743.50
  Q 341.00 733.98 340.91 697.52
  Q 340.91 696.84 341.09 695.94
  Z"
/>
<path fill="#f0af34" d="
  M 582.78 734.05
  Q 592.76 736.47 595.65 745.44
  C 599.50 757.39 593.80 769.15 581.92 773.34
  Q 574.74 775.87 569.49 775.88
  Q 540.44 775.91 534.24 775.90
  A 0.33 0.32 0.0 0 1 533.91 775.58
  L 533.91 697.14
  A 1.74 1.73 -0.2 0 1 535.64 695.41
  Q 566.00 695.35 567.84 695.34
  C 579.84 695.24 593.15 700.41 594.33 713.86
  Q 595.04 722.08 589.11 729.10
  Q 586.70 731.94 582.75 733.75
  A 0.16 0.16 0.0 0 0 582.78 734.05
  Z
  M 550.32 710.47
  L 550.62 727.35
  A 0.53 0.53 0.0 0 0 551.16 727.87
  L 566.27 727.60
  A 10.60 8.50 -1.0 0 0 576.72 718.92
  L 576.70 717.98
  A 10.60 8.50 -1.0 0 0 565.95 709.67
  L 550.85 709.93
  A 0.53 0.53 0.0 0 0 550.32 710.47
  Z
  M 550.40 742.09
  L 550.53 760.77
  A 0.76 0.76 0.0 0 0 551.29 761.52
  L 566.92 761.42
  A 12.35 9.13 -0.4 0 0 579.21 752.20
  L 579.19 750.26
  A 12.35 9.13 -0.4 0 0 566.78 741.22
  L 551.15 741.33
  A 0.76 0.76 0.0 0 0 550.40 742.09
  Z"
/>
<rect fill="#f0af34" x="616.58" y="695.37" width="17.36" height="80.52" rx="0.96"/>
<path fill="#f0af34" d="
  M 654.93 775.55
  L 654.93 695.72
  A 0.33 0.33 0.0 0 1 655.26 695.39
  L 672.11 695.39
  A 0.33 0.33 0.0 0 1 672.39 695.54
  L 706.46 746.29
  A 0.33 0.33 0.0 0 0 707.06 746.11
  L 707.06 695.72
  A 0.33 0.33 0.0 0 1 707.39 695.39
  L 723.62 695.39
  A 0.33 0.33 0.0 0 1 723.95 695.72
  L 723.95 775.55
  A 0.33 0.33 0.0 0 1 723.62 775.88
  L 707.26 775.88
  A 0.33 0.33 0.0 0 1 706.98 775.73
  L 672.57 724.47
  A 0.33 0.33 0.0 0 0 671.97 724.65
  L 671.97 775.55
  A 0.33 0.33 0.0 0 1 671.64 775.88
  L 655.26 775.88
  A 0.33 0.33 0.0 0 1 654.93 775.55
  Z"
/>
<path fill="#f0af34" d="
  M 512.65 852.92
  L 495.54 852.92
  A 0.54 0.53 -0.0 0 1 495.00 852.39
  L 495.00 840.12
  A 1.57 1.57 0.0 0 1 496.57 838.55
  L 528.47 838.55
  A 0.72 0.72 0.0 0 1 529.19 839.27
  L 529.19 867.92
  A 0.99 0.97 -28.2 0 1 529.02 868.47
  C 520.09 881.16 504.90 886.05 489.68 884.35
  C 473.43 882.54 460.78 872.33 456.36 856.94
  Q 451.90 841.39 458.12 824.66
  Q 458.83 822.76 462.82 817.07
  Q 469.42 807.70 480.97 804.02
  Q 495.55 799.39 510.09 804.72
  Q 522.84 809.39 527.36 822.25
  A 0.64 0.64 0.0 0 1 527.04 823.04
  L 513.86 829.64
  A 1.07 1.05 -24.9 0 1 512.41 829.12
  Q 508.57 820.28 499.28 818.03
  Q 497.34 817.56 491.43 817.79
  C 485.51 818.03 480.52 821.07 477.38 825.40
  Q 469.27 836.57 472.73 850.49
  Q 477.81 870.98 499.15 869.65
  Q 506.44 869.20 512.67 863.20
  A 1.22 1.21 -21.9 0 0 513.05 862.32
  L 513.05 853.32
  A 0.40 0.40 0.0 0 0 512.65 852.92
  Z"
/>
<path fill="#f0af34" d="
  M 626.42 861.36
  L 640.79 856.07
  A 0.82 0.82 0.0 0 1 641.82 856.52
  L 644.13 862.07
  A 3.81 3.35 -76.9 0 0 644.50 862.76
  C 649.14 869.37 659.16 871.36 666.68 868.90
  C 669.21 868.07 671.71 866.11 672.47 863.49
  C 674.49 856.59 669.10 854.23 663.84 852.03
  Q 661.95 851.24 659.29 850.54
  Q 648.70 847.73 642.55 844.69
  C 631.60 839.27 626.79 826.75 632.02 815.98
  C 638.99 801.60 657.73 799.49 671.44 803.90
  C 680.02 806.66 686.66 812.22 688.83 821.27
  A 0.91 0.90 -19.0 0 1 688.31 822.31
  L 675.77 827.88
  A 1.35 1.35 0.0 0 1 673.97 827.17
  C 671.83 822.05 668.23 818.58 662.50 817.37
  C 658.59 816.54 650.56 816.65 648.27 820.63
  C 645.17 826.01 648.91 829.89 653.62 831.88
  Q 657.67 833.59 666.16 836.11
  Q 669.63 837.14 672.57 838.41
  C 677.89 840.72 680.59 842.07 684.32 845.73
  Q 687.29 848.64 688.36 851.48
  C 691.99 861.11 689.20 871.70 681.24 878.01
  Q 676.34 881.90 669.70 883.42
  Q 654.54 886.89 641.07 880.89
  Q 629.71 875.82 625.78 862.62
  A 1.03 1.03 0.0 0 1 626.42 861.36
  Z"
/>
<path fill="#f0af34" d="
  M 392.22 855.11
  Q 396.16 848.17 398.44 840.48
  A 1.65 1.64 -72.7 0 1 400.53 839.38
  L 406.84 841.44
  A 1.29 1.27 -18.7 0 1 407.21 841.62
  Q 409.09 842.89 411.77 843.60
  A 1.13 1.13 0.0 0 1 412.54 845.10
  Q 408.71 854.97 402.33 863.61
  C 401.93 864.16 401.49 864.22 401.17 864.56
  A 0.69 0.68 46.5 0 0 401.15 865.51
  L 415.27 880.82
  A 1.40 1.39 -21.3 0 1 414.24 883.16
  L 398.09 883.16
  A 1.67 1.65 -21.4 0 1 396.88 882.64
  L 390.64 875.91
  A 0.54 0.54 0.0 0 0 389.88 875.88
  Q 376.03 888.14 358.72 883.58
  C 348.06 880.76 341.10 873.74 340.74 862.55
  Q 340.45 853.79 346.84 847.27
  Q 351.39 842.64 356.79 839.90
  A 0.82 0.81 57.8 0 0 357.06 838.68
  C 352.76 833.12 349.53 826.81 350.42 819.70
  Q 351.64 810.03 360.49 805.28
  Q 367.86 801.32 378.04 803.07
  C 386.92 804.60 393.28 811.22 393.91 820.09
  Q 394.31 825.69 391.01 831.30
  C 388.64 835.32 383.56 839.02 379.37 841.44
  A 0.53 0.53 0.0 0 0 379.25 842.26
  L 391.28 855.22
  A 0.59 0.59 0.0 0 0 392.22 855.11
  Z
  M 371.46 832.80
  Q 376.40 830.31 378.91 825.18
  C 380.46 821.99 379.50 817.85 376.32 816.21
  Q 373.18 814.60 369.54 815.89
  C 364.53 817.69 364.37 822.95 366.61 827.15
  Q 366.67 827.27 370.56 832.58
  A 0.72 0.72 0.0 0 0 371.46 832.80
  Z
  M 382.09 865.82
  L 366.78 849.33
  A 1.54 1.54 0.0 0 0 364.79 849.09
  C 359.32 852.69 353.84 859.90 358.68 866.36
  Q 360.97 869.42 365.54 870.54
  C 371.33 871.97 377.03 869.81 382.01 866.49
  A 0.45 0.44 -38.3 0 0 382.09 865.82
  Z"
/>
<path fill="#f0af34" d="
  M 600.53 882.65
  L 595.34 868.53
  A 0.83 0.83 0.0 0 0 594.56 867.99
  L 564.51 867.99
  A 0.83 0.83 0.0 0 0 563.73 868.54
  L 558.60 882.68
  A 0.83 0.83 0.0 0 1 557.82 883.23
  L 542.33 883.23
  A 0.83 0.83 0.0 0 1 541.55 882.12
  L 569.77 804.26
  A 0.83 0.83 0.0 0 1 570.55 803.71
  L 588.71 803.71
  A 0.83 0.83 0.0 0 1 589.49 804.25
  L 618.11 882.07
  A 0.83 0.83 0.0 0 1 617.33 883.19
  L 601.31 883.19
  A 0.83 0.83 0.0 0 1 600.53 882.65
  Z
  M 579.67 853.44
  Q 586.25 853.41 590.36 853.55
  A 0.35 0.35 0.0 0 0 590.70 853.07
  Q 585.35 838.84 579.86 822.03
  Q 579.80 821.84 579.53 821.84
  Q 579.26 821.84 579.20 822.03
  Q 573.86 838.89 568.64 853.17
  A 0.35 0.35 0.0 0 0 568.98 853.65
  Q 573.09 853.47 579.67 853.44
  Z"
/>
</svg>
